<svg width="981" height="903" viewBox="0 0 981 903" fill="none" xmlns="http://www.w3.org/2000/svg">
<g id="no_accounts">
<path id="Fill 1" fill-rule="evenodd" clip-rule="evenodd" d="M659.154 867.969C659.154 874.382 576.627 879.582 474.822 879.582C373.017 879.582 290.484 874.382 290.484 867.969C290.484 861.559 373.017 856.359 474.822 856.359C576.627 856.359 659.154 861.559 659.154 867.969" fill="#DCDCE2"/>
<path id="Stroke 3" d="M451.538 121.922C350.98 130.435 314.022 215.55 344.299 265.165C365.663 300.171 401.865 347.48 469.349 336.132C536.829 324.781 542.515 262.329 506.976 253.835C471.437 245.342 344.827 284.961 359.136 376.488C369.465 442.527 458.993 461.563 458.993 461.563" stroke="#DCDCE2" stroke-width="2" stroke-dasharray="7"/>
<path id="Fill 5" fill-rule="evenodd" clip-rule="evenodd" d="M509.658 69.6699C509.658 69.6699 524.067 32.0295 525.586 17.387C526.385 9.73585 513.706 -11.5667 498.867 8.13816C484.028 27.843 490.798 52.0036 509.658 69.6699" fill="#DCDCE2"/>
<path id="Fill 7" fill-rule="evenodd" clip-rule="evenodd" d="M458.528 28.6769C441.648 22.9684 434.006 27.4192 430.751 36.303C427.492 45.1898 432.04 62.1052 457.5 65.9612C482.963 69.8171 508.205 69.6692 508.205 69.6692C508.205 69.6692 475.408 34.3854 458.528 28.6769" fill="#DCDCE2"/>
<path id="Fill 9" fill-rule="evenodd" clip-rule="evenodd" d="M506.799 77.1281C507.182 75.5547 507.689 74.0467 508.254 72.5728C505.137 73.0651 501.966 73.7565 498.775 74.6926C495.313 75.7055 492.082 77.0342 489.043 78.5564C487.724 81.0489 486.655 83.712 485.961 86.5715C481.684 104.175 491.782 121.918 508.749 127.728C510.587 127.364 512.433 126.943 514.282 126.402C519.449 124.889 524.215 122.886 528.524 120.564C511.955 113.294 502.418 95.1528 506.799 77.1281" fill="#DCDCE2"/>
<path id="Fill 11" fill-rule="evenodd" clip-rule="evenodd" d="M482.573 86.3084C482.978 84.5693 483.528 82.9064 484.138 81.2815C469.459 90.6853 461.239 105.28 462.594 113.791C453.215 117.822 447.24 121.218 447.24 121.218C447.24 121.218 454.318 120.68 464.63 118.698C470.154 126.769 485.465 132.174 502.396 130.236C487.059 122.305 478.402 104.255 482.573 86.3084" fill="#DCDCE2"/>
<path id="Fill 13" fill-rule="evenodd" clip-rule="evenodd" d="M530.729 93.0978C527.101 92.2238 524.852 88.5651 525.725 84.9009C526.596 81.2618 530.263 79.0067 533.888 79.8807C537.533 80.7604 539.76 84.433 538.892 88.0749C538.016 91.7363 534.377 93.9747 530.729 93.0978M513.779 72.943C513.057 74.6225 512.442 76.3943 512.003 78.2294C508.155 94.3181 517.044 110.502 532.118 116.115C544.697 108.255 551.76 97.1261 548.894 87.4629C545.708 76.6237 531.059 71.0261 513.779 72.943Z" fill="#DCDCE2"/>
<path id="Fill 15" fill-rule="evenodd" clip-rule="evenodd" d="M301.383 751.854H662.876C672.041 751.854 679.474 744.403 679.474 735.216V492.754C679.474 483.543 672.024 476.078 662.839 476.078H292.611C288.228 476.078 284.678 479.637 284.678 484.031V735.108C284.678 744.357 292.154 751.854 301.383 751.854" fill="#F1F2F7"/>
<path id="Fill 17" fill-rule="evenodd" clip-rule="evenodd" d="M301.161 748.951H345.027C345.363 748.951 345.639 748.677 345.639 748.338V441.856C345.639 441.517 345.363 441.243 345.027 441.243H301.161C292.055 441.243 284.678 448.598 284.678 457.677V732.518C284.678 741.593 292.055 748.951 301.161 748.951" fill="#BEC0D6"/>
<path id="Fill 19" fill-rule="evenodd" clip-rule="evenodd" d="M588.582 647.35H702.089C702.425 647.35 702.699 647.072 702.699 646.729V578.3C702.699 577.958 702.425 577.68 702.089 577.68H588.582C579.463 577.68 572.068 585.164 572.068 594.393V630.636C572.068 639.868 579.463 647.35 588.582 647.35" fill="url(#paint0_linear_2603_11430)"/>
<path id="Fill 21" fill-rule="evenodd" clip-rule="evenodd" d="M613.561 441.243H301.558V441.284C292.204 441.509 284.678 449.182 284.678 458.662C284.678 468.141 292.204 475.814 301.558 476.04V476.078H632.411C632.751 476.078 633.027 475.802 633.027 475.46V460.854C633.027 450.022 624.31 441.243 613.561 441.243" fill="#D8DBEA"/>
<path id="Fill 23" fill-rule="evenodd" clip-rule="evenodd" d="M627.224 612.515C627.224 620.531 620.727 627.029 612.71 627.029C604.693 627.029 598.195 620.531 598.195 612.515C598.195 604.498 604.693 598 612.71 598C620.727 598 627.224 604.498 627.224 612.515" fill="#FEFEFF"/>
<path id="Stroke 25" d="M32.127 539.942V548.651" stroke="#D2D8DF" stroke-width="2.921" stroke-linecap="round"/>
<path id="Stroke 27" d="M14.707 548.65L20.5129 554.456" stroke="#D2D8DF" stroke-width="2.921" stroke-linecap="round"/>
<path id="Stroke 29" d="M6 566.068H14.7087" stroke="#D2D8DF" stroke-width="2.921" stroke-linecap="round"/>
<path id="Stroke 31" d="M14.707 583.485L20.5129 577.68" stroke="#D2D8DF" stroke-width="2.921" stroke-linecap="round"/>
<path id="Stroke 33" d="M32.127 592.194V583.485" stroke="#D2D8DF" stroke-width="2.921" stroke-linecap="round"/>
<path id="Stroke 35" d="M49.5461 583.485L43.7402 577.68" stroke="#D2D8DF" stroke-width="2.921" stroke-linecap="round"/>
<path id="Stroke 37" d="M58.2498 566.068H49.541" stroke="#D2D8DF" stroke-width="2.921" stroke-linecap="round"/>
<path id="Stroke 39" d="M49.5461 548.65L43.7402 554.456" stroke="#D2D8DF" stroke-width="2.921" stroke-linecap="round"/>
<path id="Stroke 41" d="M479.174 182.884V188.689" stroke="#D2D8DF" stroke-width="2.921" stroke-linecap="round"/>
<path id="Stroke 43" d="M464.66 197.398H470.466" stroke="#D2D8DF" stroke-width="2.921" stroke-linecap="round"/>
<path id="Stroke 45" d="M479.174 214.816V209.01" stroke="#D2D8DF" stroke-width="2.921" stroke-linecap="round"/>
<path id="Stroke 47" d="M496.593 200.301H490.787" stroke="#D2D8DF" stroke-width="2.921" stroke-linecap="round"/>
<path id="Stroke 49" d="M159.855 412.214V420.922" stroke="#D2D8DF" stroke-width="2.921" stroke-linecap="round"/>
<path id="Stroke 51" d="M133.729 438.34H142.437" stroke="#D2D8DF" stroke-width="2.921" stroke-linecap="round"/>
<path id="Stroke 53" d="M156.949 461.563V452.854" stroke="#D2D8DF" stroke-width="2.921" stroke-linecap="round"/>
<path id="Stroke 55" d="M183.078 438.34H174.369" stroke="#D2D8DF" stroke-width="2.921" stroke-linecap="round"/>
<path id="Stroke 57" d="M752.049 717.019C758.461 717.019 763.661 722.218 763.661 728.632C763.661 735.044 758.461 740.243 752.049 740.243C745.637 740.243 740.438 735.044 740.438 728.632" stroke="#D2D8DF" stroke-width="2.921" stroke-linecap="round"/>
<path id="Stroke 59" d="M807.009 875.345C808.49 885.711 801.325 895.32 791.009 896.806C780.699 898.292 771.136 891.092 769.658 880.726C768.18 870.357 775.342 860.748 785.658 859.262" stroke="#D2D8DF" stroke-width="2.921" stroke-linecap="round"/>
<path id="Fill 61" fill-rule="evenodd" clip-rule="evenodd" d="M807.205 606.707C814.243 604.481 825.029 595.766 827.527 586.388C829.79 594.678 839.28 604.481 847.846 605.226C838.206 608.686 828.989 618.96 827.527 627.029C826.53 618.803 813.784 607.906 807.205 606.707" fill="#EBECEF"/>
<path id="Fill 63" fill-rule="evenodd" clip-rule="evenodd" d="M78.5742 712.664C82.0945 711.552 87.4868 707.193 88.7358 702.505C89.8672 706.649 94.6106 711.552 98.8946 711.924C94.0736 713.653 89.4652 718.789 88.7358 722.825C88.2362 718.713 81.8648 713.263 78.5742 712.664" fill="#EBECEF"/>
<path id="Fill 65" fill-rule="evenodd" clip-rule="evenodd" d="M142.439 328.029C142.439 332.841 138.539 336.738 133.73 336.738C128.919 336.738 125.021 332.841 125.021 328.029C125.021 323.218 128.919 319.32 133.73 319.32C138.539 319.32 142.439 323.218 142.439 328.029" fill="#D1D9E0"/>
<path id="Fill 69" fill-rule="evenodd" clip-rule="evenodd" d="M978.477 310.61C978.477 317.026 973.28 322.223 966.867 322.223C960.451 322.223 955.254 317.026 955.254 310.61C955.254 304.198 960.451 299 966.867 299C973.28 299 978.477 304.198 978.477 310.61" fill="#EBECEF"/>
<path id="Stroke 73" fill-rule="evenodd" clip-rule="evenodd" d="M310.808 267.068C310.808 271.88 306.908 275.777 302.099 275.777C297.288 275.777 293.391 271.88 293.391 267.068C293.391 262.256 297.288 258.359 302.099 258.359C306.908 258.359 310.808 262.256 310.808 267.068Z" stroke="#D2D8DF" stroke-width="2.921" stroke-linecap="round"/>
<path id="Stroke 75" fill-rule="evenodd" clip-rule="evenodd" d="M175.595 817.86C169.603 820.139 162.898 817.13 160.619 811.138C158.336 805.145 161.348 798.441 167.34 796.161C173.333 793.878 180.037 796.891 182.317 802.883C184.597 808.875 181.587 815.58 175.595 817.86Z" stroke="#D2D8DF" stroke-width="2.921" stroke-linecap="round"/>
</g>
<defs>
<linearGradient id="paint0_linear_2603_11430" x1="637.384" y1="542.845" x2="579.527" y2="651.327" gradientUnits="userSpaceOnUse">
<stop stop-color="#C4A6FF"/>
<stop offset="1" stop-color="#7F3DFF"/>
</linearGradient>
</defs>
</svg>
